<svg width="40" height="40" viewBox="0 0 10 10" fill="none" xmlns="http://www.w3.org/2000/svg">
    <path d="M8.19666 10C7.60254 10 7.11918 9.51664 7.11918 8.92252C7.11918 8.65148 6.89867 8.43098 6.62764 8.43098C6.3566 8.43098 6.1361 8.65148 6.1361 8.92252C6.13612 9.51664 5.65276 10 5.05864 10C4.46451 10 3.98116 9.51664 3.98116 8.92252C3.98116 8.65148 3.76065 8.43098 3.48961 8.43098C3.21858 8.43098 2.99807 8.65148 2.99807 8.92252C2.99807 9.51664 2.51471 10 1.92059 10C1.32647 10 0.843109 9.51664 0.843109 8.92252V4.21549C0.843148 1.89029 2.731 0 5.05864 0C7.38389 0 9.27412 1.88789 9.27412 4.21549V8.92252C9.27412 9.51664 8.79078 10 8.19666 10Z" fill="#FFB9DF"/>
    <path d="M7.31289 5.59083C6.55453 5.59083 5.93756 4.97386 5.93756 4.2155C5.93756 3.45714 6.55453 2.84016 7.31289 2.84016C8.07125 2.84016 8.68822 3.45714 8.68822 4.2155C8.68821 4.97386 8.07125 5.59083 7.31289 5.59083Z" fill="white"/>
    <path d="M7.7 5.4C8.0866 5.4 8.4 5.0866 8.4 4.7C8.4 4.3134 8.0866 4 7.7 4C7.3134 4 7 4.3134 7 4.7C7 5.0866 7.3134 5.4 7.7 5.4Z" fill="#1413E1"/>
    <path d="M3.37533 5.59082C2.61697 5.59082 2 4.97384 2 4.21548C2 3.45712 2.61697 2.84015 3.37533 2.84015C4.13369 2.84015 4.75066 3.45712 4.75066 4.21548C4.75064 4.97384 4.13369 5.59082 3.37533 5.59082Z" fill="white"/>
    <path d="M3.76244 5.4C4.14904 5.4 4.46244 5.0866 4.46244 4.7C4.46244 4.3134 4.14904 4 3.76244 4C3.37584 4 3.06244 4.3134 3.06244 4.7C3.06244 5.0866 3.37584 5.4 3.76244 5.4Z" fill="#1413E1"/>
</svg>