<svg width="896" height="992" xmlns="http://www.w3.org/2000/svg" viewBox="0 0 896 992">
    <path fill="#2121de" d="M640,788a12,12,0,0,1,12,12v72a12,12,0,0,0,12,12H799.4c6.05,0,11.25,4,12.35,9.48A12,12,0,0,1,800,908H544.6c-6.05,0-11.25-4-12.35-9.48A12,12,0,0,1,544,884h72a12,12,0,0,0,12-12V800.6c0-6.05,4-11.25,9.47-12.35A13.64,13.64,0,0,1,640,788m0-4a17.2,17.2,0,0,0-3.31.33c-7.54,1.51-12.69,8.58-12.69,16.27V872a8,8,0,0,1-8,8H544a16,16,0,0,0-15.67,19.31c1.51,7.54,8.58,12.69,16.27,12.69H800a16,16,0,0,0,15.67-19.31c-1.51-7.54-8.58-12.69-16.27-12.69H664a8,8,0,0,1-8-8V800a16,16,0,0,0-16-16Z"/>
    <path fill="#2121de" d="M544,788a12,12,0,0,1,0,24H472a12,12,0,0,0-12,12v72a12,12,0,0,1-24,0V824a12,12,0,0,0-12-12H352a12,12,0,0,1,0-24H544m0-4H352a16,16,0,0,0,0,32h72a8,8,0,0,1,8,8v72a16,16,0,0,0,32,0V824a8,8,0,0,1,8-8h72a16,16,0,0,0,0-32Z"/>
    <path fill="#2121de" d="M256,788a13.64,13.64,0,0,1,2.53.25c5.49,1.1,9.47,6.3,9.47,12.35V872a12,12,0,0,0,12,12h72a12,12,0,0,1,11.75,14.52c-1.1,5.49-6.3,9.48-12.35,9.48H96a12,12,0,0,1-11.75-14.52C85.35,888,90.55,884,96.6,884H232a12,12,0,0,0,12-12V800a12,12,0,0,1,12-12m0-4a16,16,0,0,0-16,16v72a8,8,0,0,1-8,8H96.6c-7.69,0-14.76,5.15-16.27,12.69A16,16,0,0,0,96,912H351.4c7.69,0,14.76-5.15,16.27-12.69A16,16,0,0,0,352,880H280a8,8,0,0,1-8-8V800.6c0-7.69-5.15-14.76-12.69-16.27A17.2,17.2,0,0,0,256,784Z"/>
    <path fill="#2121de" d="M799.4,692c6.05,0,11.25,4,12.35,9.48A12,12,0,0,1,800,716H760a12,12,0,0,0-12,12v71.4c0,6.05-4,11.25-9.48,12.35A13.54,13.54,0,0,1,736,812a12,12,0,0,1-12-12V704a12,12,0,0,1,12-12h63.4m0-4H736a16,16,0,0,0-16,16v96a16,16,0,0,0,16,16,17.2,17.2,0,0,0,3.31-.33c7.54-1.51,12.69-8.58,12.69-16.27V728a8,8,0,0,1,8-8h40a16,16,0,0,0,15.67-19.31c-1.51-7.54-8.58-12.69-16.27-12.69Z"/>
    <path fill="#2121de" d="M640,692a12,12,0,0,1,0,24H544a12,12,0,0,1,0-24h96m0-4H544a16,16,0,0,0-16,16h0a16,16,0,0,0,16,16h96a16,16,0,0,0,16-16h0a16,16,0,0,0-16-16Z"/>
    <path fill="#2121de" d="M352,692a12,12,0,0,1,0,24H256a12,12,0,0,1,0-24h96m0-4H256a16,16,0,0,0-16,16h0a16,16,0,0,0,16,16h96a16,16,0,0,0,16-16h0a16,16,0,0,0-16-16Z"/>
    <path fill="#2121de" d="M160,692a12,12,0,0,1,12,12v96a12,12,0,0,1-12,12,13.54,13.54,0,0,1-2.52-.25c-5.5-1.1-9.48-6.3-9.48-12.35V728a12,12,0,0,0-12-12H96a12,12,0,0,1-11.75-14.53C85.35,696,90.55,692,96.6,692H160m0-4H96.6c-7.69,0-14.76,5.15-16.27,12.69A16,16,0,0,0,96,720h40a8,8,0,0,1,8,8v71.4c0,7.69,5.15,14.76,12.69,16.27A17.2,17.2,0,0,0,160,816a16,16,0,0,0,16-16V704a16,16,0,0,0-16-16Z"/>
    <path fill="#2121de" d="M640,500a12,12,0,0,1,12,12v96a12,12,0,0,1-24,0V512a12,12,0,0,1,12-12m0-4h0a16,16,0,0,0-16,16v96a16,16,0,0,0,16,16h0a16,16,0,0,0,16-16V512a16,16,0,0,0-16-16Z"/>
    <path fill="#2121de" d="M544,596a12,12,0,0,1,0,24H472a12,12,0,0,0-12,12v72a12,12,0,0,1-24,0V632a12,12,0,0,0-12-12H352a12,12,0,0,1,0-24H544m0-4H352a16,16,0,0,0,0,32h72a8,8,0,0,1,8,8v72a16,16,0,0,0,32,0V632a8,8,0,0,1,8-8h72a16,16,0,0,0,0-32Z"/>
    <path fill="#2121de" d="M256,500a12,12,0,0,1,12,12v96a12,12,0,0,1-24,0V512a12,12,0,0,1,12-12m0-4h0a16,16,0,0,0-16,16v96a16,16,0,0,0,16,16h0a16,16,0,0,0,16-16V512a16,16,0,0,0-16-16Z"/>
    <path fill="#2121de" d="M892,500v8H732V612H864a28,28,0,0,1,28,28V960a28,28,0,0,1-28,28H32A28,28,0,0,1,4,960V640a28,28,0,0,1,28-28H164V508H4v-8H160a12,12,0,0,1,12,12v96a12,12,0,0,1-12,12H32a20,20,0,0,0-20,20V776a12,12,0,0,0,12,12H64a12,12,0,0,1,0,24H24a12,12,0,0,0-12,12V960a20,20,0,0,0,20,20H864a20,20,0,0,0,20-20V824a12,12,0,0,0-12-12H832a12,12,0,0,1-11.74-14.52c1.09-5.49,6.29-9.48,12.34-9.48H872a12,12,0,0,0,12-12V640a20,20,0,0,0-20-20H736a12,12,0,0,1-12-12V512a12,12,0,0,1,12-12H892m4-4H736a16,16,0,0,0-16,16v96a16,16,0,0,0,16,16H864a16,16,0,0,1,16,16V776a8,8,0,0,1-8,8H832.6c-7.69,0-14.76,5.15-16.27,12.69A16,16,0,0,0,832,816h40a8,8,0,0,1,8,8V960a16,16,0,0,1-16,16H32a16,16,0,0,1-16-16V824a8,8,0,0,1,8-8H64a16,16,0,0,0,0-32H24a8,8,0,0,1-8-8V640a16,16,0,0,1,16-16H160a16,16,0,0,0,16-16V512a16,16,0,0,0-16-16H0v16H160v96H32A32,32,0,0,0,0,640V960a32,32,0,0,0,32,32H864a32,32,0,0,0,32-32V640a32,32,0,0,0-32-32H736V512H896V496Z"/>
    <rect fill="#ffb8de" x="416" y="404" width="64" height="8"/>
    <path fill="#2121de" d="M556,404V524H340V404h72v8H348V516H548V412H484v-8h72m4-4H480v16h64v96H352V416h64V400H336V528H560V400Z"/>
    <path fill="#2121de" d="M640,212a12,12,0,0,1,12,12V415.4c0,6.05-4,11.25-9.48,12.35A13.54,13.54,0,0,1,640,428a12,12,0,0,1-12-12V344a12,12,0,0,0-12-12H544.6c-6.05,0-11.25-4-12.35-9.48A12,12,0,0,1,544,308h72a12,12,0,0,0,12-12V224.6c0-6,4-11.25,9.48-12.35A13.54,13.54,0,0,1,640,212h0m0-4a17.2,17.2,0,0,0-3.31.33c-7.54,1.51-12.69,8.58-12.69,16.27V296a8,8,0,0,1-8,8H544a16,16,0,0,0-15.67,19.31c1.51,7.54,8.58,12.69,16.27,12.69H616a8,8,0,0,1,8,8v72a16,16,0,0,0,16,16,17.2,17.2,0,0,0,3.31-.33c7.54-1.51,12.69-8.58,12.69-16.27V224a16,16,0,0,0-16-16Z"/>
    <path fill="#2121de" d="M256,212a13.54,13.54,0,0,1,2.52.25c5.49,1.1,9.48,6.3,9.48,12.35V296a12,12,0,0,0,12,12h72a12,12,0,0,1,11.75,14.52c-1.1,5.49-6.3,9.48-12.35,9.48H280a12,12,0,0,0-12,12v72a12,12,0,0,1-12,12,13.54,13.54,0,0,1-2.52-.25c-5.49-1.1-9.48-6.3-9.48-12.35V224a12,12,0,0,1,12-12m0-4a16,16,0,0,0-16,16V415.4c0,7.69,5.15,14.76,12.69,16.27A17.2,17.2,0,0,0,256,432a16,16,0,0,0,16-16V344a8,8,0,0,1,8-8h71.4c7.69,0,14.76-5.15,16.27-12.69A16,16,0,0,0,352,304H280a8,8,0,0,1-8-8V224.6c0-7.69-5.15-14.76-12.69-16.27A17.2,17.2,0,0,0,256,208Z"/>
    <path fill="#2121de" d="M800,212a12,12,0,0,1,0,24H736a12,12,0,0,1,0-24h64m0-4H736a16,16,0,0,0-16,16h0a16,16,0,0,0,16,16h64a16,16,0,0,0,16-16h0a16,16,0,0,0-16-16Z"/>
    <path fill="#2121de" d="M544,212a12,12,0,0,1,0,24H472a12,12,0,0,0-12,12v72a12,12,0,0,1-24,0V248a12,12,0,0,0-12-12H352a12,12,0,0,1,0-24H544m0-4H352a16,16,0,0,0,0,32h72a8,8,0,0,1,8,8v72a16,16,0,0,0,32,0V248a8,8,0,0,1,8-8h72a16,16,0,0,0,0-32Z"/>
    <path fill="#2121de" d="M160,212a12,12,0,0,1,0,24H96a12,12,0,0,1,0-24h64m0-4H96a16,16,0,0,0-16,16h0a16,16,0,0,0,16,16h64a16,16,0,0,0,16-16h0a16,16,0,0,0-16-16Z"/>
    <path fill="#2121de" d="M799.75,84A12.27,12.27,0,0,1,812,96.25v31.5A12.27,12.27,0,0,1,799.75,140h-63.5A12.27,12.27,0,0,1,724,127.75V96.25A12.27,12.27,0,0,1,736.25,84h63.5m0-4h-63.5A16.26,16.26,0,0,0,720,96.25v31.5A16.26,16.26,0,0,0,736.25,144h63.5A16.26,16.26,0,0,0,816,127.75V96.25A16.26,16.26,0,0,0,799.75,80Z"/>
    <path fill="#2121de" d="M639.75,84A12.27,12.27,0,0,1,652,96.25v31.5A12.27,12.27,0,0,1,639.75,140h-95.5A12.27,12.27,0,0,1,532,127.75V96.25A12.27,12.27,0,0,1,544.25,84h95.5m0-4h-95.5A16.26,16.26,0,0,0,528,96.25v31.5A16.26,16.26,0,0,0,544.25,144h95.5A16.26,16.26,0,0,0,656,127.75V96.25A16.26,16.26,0,0,0,639.75,80Z"/>
    <path fill="#2121de" d="M351.5,84a12.27,12.27,0,0,1,12.25,12.25v31.5A12.27,12.27,0,0,1,351.5,140H256a12.27,12.27,0,0,1-12.25-12.25V96.25A12.27,12.27,0,0,1,256,84h95.5m0-4H256a16.26,16.26,0,0,0-16.25,16.25v31.5A16.26,16.26,0,0,0,256,144h95.5a16.26,16.26,0,0,0,16.25-16.25V96.25A16.26,16.26,0,0,0,351.5,80Z"/>
    <path fill="#2121de" d="M159.75,84A12.27,12.27,0,0,1,172,96.25v31.5A12.27,12.27,0,0,1,159.75,140H96.25A12.27,12.27,0,0,1,84,127.75V96.25A12.27,12.27,0,0,1,96.25,84h63.5m0-4H96.25A16.26,16.26,0,0,0,80,96.25v31.5A16.26,16.26,0,0,0,96.25,144h63.5A16.26,16.26,0,0,0,176,127.75V96.25A16.26,16.26,0,0,0,159.75,80Z"/>
    <path fill="#2121de" d="M864,4a28,28,0,0,1,28,27.66V288.32A28,28,0,0,1,864,316H732V420H892v8H736a12,12,0,0,1-12-12V320a12,12,0,0,1,12-12H864a20,20,0,0,0,20-20V36h0V32a20,20,0,0,0-20-20H472a12,12,0,0,0-12,12V132a12,12,0,0,1-24,0V24a12,12,0,0,0-12-12H32A20,20,0,0,0,12,32V288a20,20,0,0,0,20,20H160a12,12,0,0,1,12,12v96a12,12,0,0,1-12,12H4v-8H164V316H32A28,28,0,0,1,4,288V32A28,28,0,0,1,32,4H864m0-4H32A32,32,0,0,0,0,32V288a32,32,0,0,0,32,32H160v96H0v16H160a16,16,0,0,0,16-16V320a16,16,0,0,0-16-16H32a16,16,0,0,1-16-16V32A16,16,0,0,1,32,16H424a8,8,0,0,1,8,8V132a16,16,0,0,0,32,0V24a8,8,0,0,1,8-8H864a16,16,0,0,1,16,16h0V288h0a16,16,0,0,1-16,16H736a16,16,0,0,0-16,16v96a16,16,0,0,0,16,16H896V416H736V320H864a32,32,0,0,0,32-32h0V32h0A32,32,0,0,0,864,0Z"/>
</svg>
